<svg fill="#000000" xmlns="http://www.w3.org/2000/svg"  viewBox="0 0 48 48" width="96px" height="96px"><path d="M 18 1.0996094 C 17.17 1.2926094 16.2835 6.4889219 18.3125 7.9199219 L 18.488281 8.9023438 C 17.84631 9.1775373 17.19206 9.5293883 16.533203 10 C 15.705269 10.591302 14.798487 11.990293 13.929688 13.847656 L 8.2421875 13.054688 L 8.15625 13.546875 L 13.556641 14.666016 C 13.445925 14.923441 13.337086 15.195586 13.228516 15.466797 L 7.1132812 15.349609 L 7.0878906 15.849609 L 12.896484 16.328125 C 12.771799 16.66291 12.647523 16.99774 12.527344 17.347656 L 7.4648438 18.253906 L 7.5351562 18.746094 L 12.236328 18.244141 C 12.15396 18.500835 12.067645 18.751221 11.988281 19.013672 C 9.9882812 21.020672 7 26.017 7 35 C 7 37.287 8.7163906 37.862281 9.9003906 37.988281 C 11.574391 44.136281 15 47 15 47 L 24 47 L 33 47 C 33 47 36.425609 44.136281 38.099609 37.988281 C 39.283609 37.862281 41 37.287 41 35 C 41 26.017 38.011719 21.020672 36.011719 19.013672 C 35.932355 18.751221 35.846033 18.500828 35.763672 18.244141 L 40.464844 18.746094 L 40.535156 18.253906 L 35.472656 17.347656 C 35.352495 16.997758 35.228176 16.662885 35.103516 16.328125 L 40.912109 15.849609 L 40.886719 15.349609 L 34.771484 15.466797 C 34.662938 15.19561 34.554051 14.923417 34.443359 14.666016 L 39.84375 13.546875 L 39.757812 13.054688 L 34.070312 13.847656 C 33.201679 11.990458 32.295288 10.591859 31.466797 10 C 30.80794 9.5293883 30.15369 9.1775373 29.511719 8.9023438 L 29.6875 7.9199219 C 31.7175 6.4889219 30.83 1.2926094 30 1.0996094 C 29.178 0.90860937 26.239187 4.36075 27.242188 7.34375 L 26.951172 8.1796875 C 25.856565 8.0106906 24.848232 8 24 8 C 23.151768 8 22.143435 8.0106906 21.048828 8.1796875 L 20.757812 7.34375 C 21.760813 4.36075 18.822 0.90860937 18 1.0996094 z M 18.5 11 C 19.328 11 20 11.672 20 12.5 C 20 13.328 19.328 14 18.5 14 C 17.672 14 17 13.328 17 12.5 C 17 11.672 17.672 11 18.5 11 z M 29.5 11 C 30.328 11 31 11.672 31 12.5 C 31 13.328 30.328 14 29.5 14 C 28.672 14 28 13.328 28 12.5 C 28 11.672 28.672 11 29.5 11 z M 18.5 11.75 A 0.75 0.75 0 0 0 18.5 13.25 A 0.75 0.75 0 0 0 18.5 11.75 z M 29.5 11.75 A 0.75 0.75 0 0 0 29.5 13.25 A 0.75 0.75 0 0 0 29.5 11.75 z M 24 13 C 24.828 13 25.5 13.224 25.5 13.5 C 25.5 13.776 24.828 14.300781 24 14.300781 C 23.172 14.300781 22.5 13.776 22.5 13.5 C 22.5 13.224 23.172 13 24 13 z M 24 18 C 31.18 18 37 24.268 37 32 C 37 39.732 31.18 46 24 46 C 16.82 46 11 39.732 11 32 C 11 24.268 16.82 18 24 18 z M 24 21 C 22.895 21 22 22.353141 22 22.869141 C 22 23.385141 22.895 22.214844 24 22.214844 C 25.105 22.214844 26 23.385141 26 22.869141 C 26 22.353141 25.105 21 24 21 z M 18.275391 22.056641 C 18.149693 22.047283 18.020469 22.057047 17.886719 22.091797 C 16.817719 22.368797 15.926453 24.096859 16.064453 24.630859 C 16.203453 25.165859 16.852875 23.703781 17.921875 23.425781 C 18.990875 23.147781 20.0755 24.160953 19.9375 23.626953 C 19.815875 23.158828 19.155271 22.122143 18.275391 22.056641 z M 29.724609 22.056641 C 28.844729 22.122143 28.184125 23.158828 28.0625 23.626953 C 27.9245 24.160953 29.009125 23.147781 30.078125 23.425781 C 31.147125 23.703781 31.796547 25.165859 31.935547 24.630859 C 32.073547 24.096859 31.182281 22.368797 30.113281 22.091797 C 29.979531 22.057047 29.850307 22.047283 29.724609 22.056641 z M 21.199219 25 C 20.094219 25 19.199219 26.353141 19.199219 26.869141 C 19.199219 27.385141 20.094219 26.214844 21.199219 26.214844 C 22.304219 26.214844 23.199219 27.385141 23.199219 26.869141 C 23.199219 26.353141 22.304219 25 21.199219 25 z M 26.800781 25 C 25.695781 25 24.800781 26.353141 24.800781 26.869141 C 24.800781 27.385141 25.695781 26.214844 26.800781 26.214844 C 27.905781 26.214844 28.800781 27.385141 28.800781 26.869141 C 28.800781 26.353141 27.905781 25 26.800781 25 z M 16.371094 26.527344 C 16.244457 26.510656 16.112562 26.511656 15.976562 26.535156 C 14.888562 26.723156 13.941297 28.261531 14.029297 28.769531 C 14.117297 29.278531 14.912 27.920422 16 27.732422 C 17.088 27.544422 18.058703 28.595891 17.970703 28.087891 C 17.893703 27.643391 17.257551 26.644156 16.371094 26.527344 z M 31.628906 26.527344 C 30.742449 26.644156 30.106297 27.643391 30.029297 28.087891 C 29.941297 28.595891 30.912 27.544422 32 27.732422 C 33.088 27.920422 33.882703 29.278531 33.970703 28.769531 C 34.058703 28.261531 33.111437 26.723156 32.023438 26.535156 C 31.887438 26.511656 31.755543 26.510656 31.628906 26.527344 z"/></svg>